<?xml version="1.0" encoding="UTF-8"?>
<svg xmlns="http://www.w3.org/2000/svg" version="1.1" viewBox="0 0 512 509.6">
  <!-- Generator: Adobe Illustrator 29.2.1, SVG Export Plug-In . SVG Version: 2.1.0 Build 116)  -->
  <defs>
    <style>
      .st0 {
        fill: none;
        fill-rule: evenodd;
      }

      .st1 {
        fill: #3a7f8e;
      }
    </style>
  </defs>
  <g id="_图层_1" data-name="图层_1" image-rendering="optimizeQuality" shape-rendering="geometricPrecision" text-rendering="geometricPrecision">
    <path class="st0" d="M115.6,0h280.8c63.6,0,115.6,52,115.6,115.6v278.4c0,63.6-52,115.6-115.6,115.6H115.6c-63.6,0-115.6-52-115.6-115.6V115.6C0,52,52,0,115.6,0Z"/>
    <path class="st1" d="M388.1,74.3l-98.1,82.9h98.1v-82.9ZM268.7,143.6L412.3,22.2v135.1h45.9v204h-55.1v128.1l-134.4-123.3v119.4h-24.2v-119.4l-137.4,122.7v-127.5h-53.3v-204h55.1V21.2l135.6,120.9V23.8h24.2v119.8ZM227.2,181.5c-49.7,0-99.4,0-149.1,0v155.6h29v-38.6l120.1-117h0ZM286.1,181.5l117,117.1v38.5h30.9v-155.6c-49.3,0-98.6,0-147.8,0ZM225.1,157.2l-92-82v82h92ZM244.5,333.8v-135.4l-113.2,110.3v126.2l113.2-101.1h0ZM269.1,198.6v135l109.8,100.8c0-41.9,0-83.9,0-125.8l-109.8-109.9Z"/>
  </g>
</svg>